<?xml version="1.0" encoding="UTF-8"?>
<svg id="Layer_2" data-name="Layer 2" xmlns="http://www.w3.org/2000/svg" viewBox="0 0 433.71 100.02">
  <g id="Layer_1-2" data-name="Layer 1">
    <g>
      <rect width="100.02" height="100.02" rx="10" ry="10" style="fill: #264347;"/>
      <g>
        <path d="m84.47,22.45v13.78h-13.78c-2.51,0-4.87.68-6.89,1.85v-14.77c2.21-.57,4.51-.87,6.89-.87h13.78Z" style="fill: #efede6;"/>
        <path d="m70.69,63.8c-2.51,0-4.87-.68-6.89-1.85-4.12-2.38-6.89-6.83-6.89-11.93v-27.57H15.55v13.78h20.67c.94,0,1.87.06,2.78.19,1.42.19,2.8.52,4.11.99v12.6c0,5.02,1.34,9.73,3.69,13.78,1.4,2.42,3.15,4.6,5.19,6.47,1.49,1.39,3.14,2.61,4.91,3.63,2.13,1.23,4.45,2.18,6.89,2.81,2.21.57,4.51.87,6.89.87h13.78v-13.78h-13.78Z" style="fill: #efede6;"/>
        <path d="m46.69,74.73c-1.12.67-2.32,1.23-3.57,1.67-2.15.76-4.47,1.18-6.89,1.18s-4.73-.41-6.89-1.19c-5.87-2.07-10.53-6.73-12.6-12.6-.76-2.15-1.18-4.47-1.18-6.89v-6.89h13.78v6.89c0,3.81,3.09,6.89,6.89,6.89.94,0,1.83-.19,2.64-.52.08.17.15.35.23.52,1.08,2.46,2.43,4.77,4.02,6.89,1.08,1.44,2.27,2.8,3.57,4.05Z" style="fill: #efede6;"/>
      </g>
    </g>
    <g>
      <g>
        <path d="m115.17,22.52h35.95v7.63h-13.84v39.64h-8.28V30.15h-13.84v-7.63Z" style="fill: #264347;"/>
        <path d="m149.44,60.67c0-5.88,4.27-9.57,11.83-10.15l9.57-.71v-.71c0-4.33-2.59-6.08-6.6-6.08-4.66,0-7.24,1.94-7.24,5.3h-6.73c0-6.92,5.69-11.45,14.36-11.45s13.9,4.66,13.9,13.51v19.4h-6.92l-.58-4.72c-1.36,3.3-5.69,5.56-10.67,5.56-6.79,0-10.93-3.95-10.93-9.96Zm21.47-3.82v-1.68l-6.66.52c-4.92.45-6.79,2.07-6.79,4.66,0,2.91,1.94,4.33,5.5,4.33,4.85,0,7.95-2.91,7.95-7.83Z" style="fill: #264347;"/>
        <path d="m186.31,69.79V21.68h7.89v20.82c2.07-3.56,6.34-5.69,11.19-5.69,9.12,0,14.68,7.11,14.68,17.2s-6.01,16.62-15.2,16.62c-4.79,0-8.86-2.13-10.74-5.82l-.52,4.98h-7.31Zm16.94-6.4c5.56,0,8.86-4.01,8.86-9.7s-3.3-9.76-8.86-9.76-8.99,4.01-8.99,9.76,3.56,9.7,8.99,9.7Z" style="fill: #264347;"/>
        <path d="m242.25,46.19c0-14.68,9.25-24.44,23.09-24.44,11.19,0,19.53,6.53,21.15,16.68h-8.73c-1.62-5.5-6.34-8.73-12.61-8.73-8.73,0-14.23,6.34-14.23,16.43s5.56,16.49,14.23,16.49c6.4,0,11.32-3.36,12.87-8.6h8.6c-1.81,9.96-10.48,16.55-21.66,16.55-13.77,0-22.7-9.57-22.7-24.38Z" style="fill: #264347;"/>
        <path d="m292.69,69.79V21.68h7.83v48.11h-7.83Z" style="fill: #264347;"/>
        <path d="m323.99,36.94c9.89,0,17.07,6.85,17.07,16.81s-7.18,16.81-17.07,16.81-17.07-6.86-17.07-16.81,7.18-16.81,17.07-16.81Zm0,26.58c5.43,0,9.18-3.95,9.18-9.76s-3.75-9.76-9.18-9.76-9.18,3.94-9.18,9.76,3.75,9.76,9.18,9.76Z" style="fill: #264347;"/>
        <path d="m352.38,60.09c.06,2.78,2.13,4.53,5.75,4.53s5.69-1.49,5.69-3.82c0-1.62-.84-2.78-3.69-3.43l-5.75-1.36c-5.76-1.29-8.54-4.01-8.54-9.12,0-6.27,5.3-10.02,12.67-10.02s12.03,4.14,12.09,10.35h-7.5c-.06-2.72-1.88-4.46-4.91-4.46s-4.92,1.42-4.92,3.81c0,1.81,1.42,2.98,4.14,3.62l5.75,1.36c5.37,1.23,8.08,3.69,8.08,8.6,0,6.47-5.5,10.48-13.39,10.48s-13-4.27-13-10.54h7.5Z" style="fill: #264347;"/>
        <path d="m375.41,53.82c0-10.02,6.53-16.94,15.91-16.94s15.65,6.4,15.65,16.36v2.39l-24.06.06c.58,5.63,3.56,8.47,8.79,8.47,4.33,0,7.18-1.68,8.08-4.72h7.31c-1.36,6.98-7.18,11.19-15.52,11.19-9.51,0-16.17-6.92-16.17-16.81Zm7.7-3.17h16.04c0-4.4-3.04-7.31-7.76-7.31s-7.5,2.52-8.28,7.31Z" style="fill: #264347;"/>
        <path d="m433.35,45.02h-2.91c-5.69,0-9.25,3.04-9.25,9.25v15.52h-7.89v-31.88h7.44l.45,4.66c1.36-3.17,4.4-5.3,8.67-5.3,1.1,0,2.2.13,3.49.45v7.31Z" style="fill: #264347;"/>
      </g>
      <g>
        <path d="m387.83,93.46v6.26h-3.18v-18.17h7.18c3.65,0,6.01,2.39,6.01,5.94s-2.39,5.97-6.01,5.97h-4Zm0-9.07v6.24h3.33c2.19,0,3.36-1.17,3.36-3.16s-1.19-3.08-3.31-3.08h-3.38Z" style="fill: #264347;"/>
        <path d="m400.53,99.73v-18.17h6.93c4.13,0,6.54,2.09,6.54,5.67,0,2.44-1.14,4.18-3.28,5.05l3.46,7.46h-3.48l-3.08-6.79h-3.9v6.79h-3.18Zm3.18-9.59h3.75c2.01,0,3.21-1.07,3.21-2.91s-1.19-2.83-3.21-2.83h-3.75v5.74Z" style="fill: #264347;"/>
        <path d="m424.86,100.02c-5.2,0-8.77-3.85-8.77-9.4s3.6-9.4,8.8-9.4,8.82,3.85,8.82,9.4-3.63,9.4-8.85,9.4Zm.02-15.73c-3.33,0-5.47,2.46-5.47,6.34s2.14,6.34,5.47,6.34,5.47-2.51,5.47-6.34-2.14-6.34-5.47-6.34Z" style="fill: #264347;"/>
      </g>
    </g>
  </g>
</svg>